<?xml version="1.0" standalone="no"?>
<!DOCTYPE svg PUBLIC "-//W3C//DTD SVG 1.1//EN" "http://www.w3.org/Graphics/SVG/1.1/DTD/svg11.dtd" >
<!--
2013-9-30: Created.
-->
<svg>
<metadata>
Created by iconfont
</metadata>
<defs>

<font id="iconfont" horiz-adv-x="1024" >
  <font-face
    font-family="iconfont"
    font-weight="500"
    font-stretch="normal"
    units-per-em="1024"
    ascent="896"
    descent="-128"
  />
    <missing-glyph />
    
    <glyph glyph-name="11" unicode="&#58894;" d="M408.240333 76.319591c-87.60422 0-169.966043 34.114982-231.911884 96.060823S80.267627 316.687054 80.267627 404.291275s34.114982 169.966043 96.060823 231.911884 144.307663 96.060823 231.911884 96.060823c87.60422 0 169.96502-34.114982 231.91086-96.060823 61.946864-61.945841 96.061846-144.307663 96.061846-231.911884s-34.114982-169.96502-96.061846-231.91086C578.205353 110.434573 495.844553 76.319591 408.240333 76.319591zM408.240333 694.401652c-159.967318 0-290.110377-130.143059-290.110377-290.110377 0-159.967318 130.143059-290.109354 290.110377-290.109354 159.968341 0 290.110377 130.143059 290.110377 290.109354C698.35071 564.259616 568.208675 694.401652 408.240333 694.401652zM618.922121 168.820516l26.663916 26.663916 278.654204-278.654204-26.663916-26.663916-278.654204 278.654204Z"  horiz-adv-x="1024" />

    
    <glyph glyph-name="iconfontsousuokuangsousuo" unicode="&#58951;" d="M243.523705 247.579761C131.876014 359.204029 131.876014 540.833796 243.523705 652.458066 297.61283 706.573784 369.504161 736.317637 446.002451 736.317637 522.443863 736.317637 594.335196 706.573784 648.42432 652.458066 760.072013 540.833796 760.072013 359.204029 648.42432 247.579761 594.335196 193.520589 522.443863 163.720192 445.945575 163.720192 369.504161 163.720192 297.61283 193.520589 243.523705 247.579761L243.523705 247.579761ZM921.6 14.887828 707.120404 229.371546C821.213768 364.349829 816.151798 565.714586 688.920069 692.945896 621.806331 760.067481 533.875953 793.6 446.002451 793.6 358.072074 793.6 270.141697 760.067481 203.027956 692.945896 68.857348 558.815821 68.857348 341.278551 203.027956 207.091932 270.141697 140.026895 358.072074 106.437827 445.945575 106.437827 524.83266 106.437827 602.809728 134.937641 666.624655 188.883717L881.161129-25.6 921.6 14.887828Z"  horiz-adv-x="1024" />

    
    <glyph glyph-name="sj" unicode="&#58881;" d="M512 125.953l-483.737 516.096h967.475l-483.737-516.096z"  horiz-adv-x="1024" />

    
    <glyph glyph-name="xitong" unicode="&#59143;" d="M932.497495 716.837504c-14.09195 14.053064-32.82357 21.792329-52.743248 21.792329-160.710238 0-311.412542 132.151809-312.899406 133.471874-13.673417 12.409634-31.441083 19.244296-50.02637 19.244296-18.399045 0-36.132942-6.78452-49.929156-19.102057-0.38067-0.338714-38.763862-34.235732-96.928586-67.585281-52.535517-30.122041-132.652206-66.028832-215.986169-66.028832-41.180911 0-74.683956-33.370015-74.683956-74.386174l0-218.717374c0-198.798718 118.086465-365.582279 394.850883-557.683459 12.514012-8.695033 27.27111-13.291724 42.676985-13.291724 15.409968 0 30.16502 4.596691 42.670845 13.291724C836.263733 79.946053 954.349175 246.730637 954.349175 445.527308L954.349175 664.245705C954.350199 684.107055 946.590468 702.78444 932.497495 716.837504zM877.707634 445.528332c0-120.378671-42.910299-273.204335-360.879164-494.098281C198.92919 172.338323 156.030148 325.157847 156.030148 445.528332L156.030148 662.205233c43.726897 0.24457 89.77056 8.302083 136.888693 23.960715 38.246069 12.709463 77.286224 30.42801 116.034736 52.66343 59.390645 34.08019 100.050694 68.589145 107.872846 75.40641 7.818059-6.817266 48.459688-41.326221 107.850333-75.40641 38.748513-22.23542 77.793784-39.952944 116.055203-52.66343 47.13553-15.658631 93.208868-23.716144 136.973628-23.960715L877.707634 445.528332zM704.678836 342.955188l-26.700105 15.557324c1.426489 9.017374 2.122337 17.401322 2.122337 25.487487 0 8.02886-0.697895 16.410762-2.127454 25.484418l26.699082 15.546068c16.399505 9.538237 22.048155 30.750351 12.588713 47.285956l-26.729781 46.694485c-6.126534 10.698666-17.559934 17.344017-29.839609 17.344017-6.021134 0-11.971659-1.610684-17.21201-4.65809l-26.978445-15.708773c-13.631462 11.027148-28.170596 19.640316-43.346227 25.678846l0 17.568121c0 19.09694-15.439644 34.633798-34.417881 34.633798l-53.472865 0c-18.971074 0-34.404578-15.536858-34.404578-34.633798l0-17.5804c-15.180747-6.03546-29.724998-14.649652-43.360554-25.679869l-26.981515 15.71082c-5.237281 3.046383-11.186783 4.657067-17.204847 4.657067-12.273535 0-23.703865-6.64535-29.829376-17.34197l-26.744107-46.681182c-9.463536-16.525372-3.816932-37.732369 12.583596-47.272653l26.697035-15.545044c-1.426489-9.016351-2.122337-17.398252-2.122337-25.486464 0-8.027837 0.697895-16.409738 2.127454-25.485441l-26.693965-15.554254c-16.411785-9.529027-22.060435-30.730908-12.592806-47.264467l26.742061-46.691415c6.121418-10.698666 17.554818-17.344017 29.837562-17.342993 6.018064 0 11.965519 1.608637 17.201777 4.65502l26.976398 15.708773c13.620206-11.028171 28.16548-19.645432 43.3626-25.690102l0-17.582447c0-19.09694 15.434527-34.634822 34.404578-34.634822l53.472865 0c18.978237 0 34.417881 15.537881 34.417881 34.634822l0 17.571191c15.20019 6.054903 29.740348 14.671141 43.348274 25.689079l26.979468-15.71082c5.233188-3.044336 11.181667-4.653997 17.199731-4.653997 12.280698 0 23.717168 6.644327 29.849842 17.34197l26.727735 46.690392C726.728014 312.210977 721.081411 333.412858 704.678836 342.955188zM486.813876 259.446239c-26.423813 5.405103-50.941206 19.715017-69.035306 40.291658l-4.168949 4.742001-42.586934-24.793686c-0.880043-0.51063-1.831718-0.77055-2.827395-0.77055-2.049682 0-3.888564 1.076518-4.922103 2.882654l-13.372565 23.347754c-1.598404 2.788509-0.657986 6.360871 2.095731 7.963369l42.671868 24.837688-1.963725 5.915733c-4.454452 13.416568-6.712889 26.921139-6.712889 40.136116 0 13.169951 2.263553 26.680663 6.728238 40.155559l1.959631 5.913687-42.680055 24.834618c-2.75167 1.601474-3.690042 5.177929-2.093684 7.969509l13.355169 23.341614c1.019213 1.777483 2.911306 2.88163 4.938476 2.88163 0.991584 0 1.935072-0.25685 2.805906-0.76441l42.608423-24.813129 4.168949 4.745071c18.075681 20.570501 42.583864 34.883485 69.010747 40.304961l6.132674 1.257643 0 35.929304c0 3.200902 2.555196 5.804193 5.696746 5.804193l26.730805 0c3.140527 0 5.695722-2.603291 5.695722-5.804193l0-35.932374 6.136767-1.255597c26.424836-5.406127 50.942229-19.715017 69.035306-40.292682l4.168949-4.740978 42.606377 24.796756c0.873903 0.509606 1.821485 0.76748 2.816139 0.76748 2.053776 0 3.895727-1.076518 4.928243-2.882654l13.368472-23.342638c1.599428-2.794649 0.659009-6.381337-2.076288-7.982812L629.346103 430.054919l1.962701-5.915733c4.455475-13.430894 6.713912-26.939559 6.713912-40.152489 0-13.202697-2.258437-26.708292-6.713912-40.139186l-1.962701-5.915733 42.683125-24.835641c2.750647-1.601474 3.690042-5.177929 2.095731-7.965415l-13.373589-23.350824c-1.031493-1.803066-2.873444-2.87856-4.926196-2.87856-0.99363 0-1.940189 0.258896-2.815115 0.76748l-42.591027 24.796756-4.168949-4.738931c-18.107403-20.580734-42.62582-34.891671-69.037353-40.294728l-6.136767-1.255597 0-35.932374c0-3.200902-2.555196-5.804193-5.696746-5.804193l-26.729781 0c-3.14155 0-5.696746 2.603291-5.696746 5.804193l0 35.9467L486.813876 259.446239zM586.525855 384c0 41.395806-33.429367 75.072813-74.520227 75.072813-41.089837 0-74.519204-33.67803-74.519204-75.072813 0-41.394782 33.428344-75.071789 74.519204-75.071789C553.081139 308.928211 586.511529 342.604194 586.525855 384zM512.005628 416.764218c17.880229 0 32.426527-14.697747 32.426527-32.764218 0-18.065448-14.547321-32.764218-32.426527-32.764218-17.879206 0-32.425504 14.697747-32.425504 32.764218C479.580125 402.066471 494.126422 416.764218 512.005628 416.764218z"  horiz-adv-x="1024" />

    
    <glyph glyph-name="zengjiayuangong" unicode="&#58919;" d="M461.824 429.056c-125.44 0-227.84 102.4-227.84 227.84s102.4 227.84 227.84 227.84 227.84-102.4 227.84-227.84-102.4-227.84-227.84-227.84z m0 435.2c-114.176 0-207.36-93.184-207.36-207.36s93.184-207.36 207.36-207.36 207.36 93.184 207.36 207.36S576 864.256 461.824 864.256zM206.336-100.352c-51.712 75.776-71.168 167.424-53.76 258.048 16.896 90.624 68.608 168.96 144.384 220.672C372.736 430.08 464.384 449.536 554.496 432.128c90.624-16.896 168.96-68.608 220.672-144.384l-16.896-11.776c-48.64 71.68-122.368 119.808-207.36 135.68-84.992 15.872-171.008-2.048-242.688-50.688S188.416 238.592 172.544 153.6s2.048-171.008 50.688-242.688l-16.896-11.264zM758.272-104.96c-110.592 0-200.192 89.6-200.192 200.192s89.6 200.192 200.192 200.192 200.192-89.6 200.192-200.192-89.6-200.192-200.192-200.192z m0 379.904c-99.328 0-179.712-80.384-179.712-179.712s80.384-179.712 179.712-179.712 179.712 80.384 179.712 179.712-80.384 179.712-179.712 179.712zM593.92 93.696c0 5.12 4.096 8.704 8.704 8.704l311.808 1.536c5.12 0 8.704-4.096 8.704-8.704 0-5.12-4.096-8.704-8.704-8.704l-311.808-1.536c-4.608 0-8.704 4.096-8.704 8.704zM757.76-66.56c-5.632 0-10.24 4.608-10.24 10.24v296.96c0 5.632 4.608 10.24 10.24 10.24s10.24-4.608 10.24-10.24v-296.96c0-5.632-4.608-10.24-10.24-10.24z"  horiz-adv-x="1024" />

    
    <glyph glyph-name="fanhui" unicode="&#59108;" d="M544.6-33.875v756.724l307.962-307.813c11.688-11.625 30.775-11.375 42.75 0.563 11.938 11.938 12.188 31.125 0.538 42.75l-358.1 357.875c-1.65 2.025-3.525 3.775-5.688 5.275-5.375 4.025-11.813 6.025-18.274 5.9-7.75 0.124-15.462-2.712-21.314-8.563l-360.712-360.5c-11.625-11.625-11.375-30.813 0.563-42.75s31.063-12.188 42.75-0.563l308.3 308.263v-757.163c0-16.563 13.712-29.875 30.65-29.875 16.889 0 30.575 13.313 30.575 29.875z"  horiz-adv-x="1024" />

    
    <glyph glyph-name="new" unicode="&#58900;" d="M477.856 418.144h-153.6c-9.445-0.036-17.088-7.702-17.088-17.152 0-0.023 0-0.045 0-0.068l-0-33.821c0-9.664 7.648-17.216 17.088-17.216h153.6v-153.6c0-9.44 7.712-17.088 17.216-17.088h33.824c0.048-0 0.104-0.001 0.16-0.001 9.42 0 17.056 7.636 17.056 17.056 0 0.012-0 0.023-0 0.035l0 153.598h153.6c9.445 0.036 17.088 7.702 17.088 17.152 0 0.023-0 0.045-0 0.068l0 33.821c0 0.048 0.001 0.104 0.001 0.16 0 9.42-7.636 17.056-17.056 17.056-0.012 0-0.023-0-0.035-0l-153.598 0v153.6c-0.036 9.445-7.702 17.088-17.152 17.088-0.023 0-0.045-0-0.068-0l-33.821 0c-0.048 0-0.104 0.001-0.16 0.001-9.42 0-17.056-7.636-17.056-17.056 0-0.012 0-0.023 0-0.035l-0-153.598zM512-128c-282.784 0-512 229.216-512 512s229.216 512 512 512 512-229.216 512-512-229.216-512-512-512z"  horiz-adv-x="1024" />

    
    <glyph glyph-name="-" unicode="&#58903;" d="M965.55182 429.62206l-77.523631 18.60473a378.713344 378.713344 0 0 1-18.222014 68.208475l57.790195 54.831816c4.898567 4.65195 5.535063 13.009292 1.516539 19.968797l-29.084408 50.374294c-4.018523 6.963599-11.574616 10.594289-18.051122 8.673544l-76.480882-22.660093a383.701962 383.701962 0 0 1-49.872874 49.871851l22.661116 76.482929c1.919722 6.477528-1.711991 14.030551-8.673543 18.051121l-50.373271 29.083385c-6.963599 4.021593-15.321964 3.38612-19.970844-1.513469L644.431172 741.805152a378.750183 378.750183 0 0 1-68.204382 18.219967l-18.606776 77.527724c-1.577938 6.569626-8.499581 11.2973-16.537652 11.297301h-58.165747c-8.040117 0-14.95869-4.727675-16.536629-11.297301l-18.606776-77.528747a378.728694 378.728694 0 0 1-68.202335-18.219967l-54.835909 57.796334c-4.65195 4.898567-13.009292 5.535063-19.973914 1.51347l-50.373271-29.083386c-6.960529-4.02057-10.591219-11.573593-8.674567-18.051121l22.664186-76.485999a383.726521 383.726521 0 0 1-49.869804-49.869804l-76.483952 22.661116c-6.479575 1.920746-14.032598-1.709945-18.054191-8.673543l-29.083386-50.374295c-4.018523-6.959505-3.384074-15.31787 1.514493-19.968797l57.796335-54.836932a378.728694 378.728694 0 0 1-18.219967-68.202335L58.44511 429.62206c-6.564509-1.577938-11.294231-8.497535-11.29423-16.537651v-58.167794c0-8.037047 4.729721-14.95869 11.29423-16.536629l77.530794-18.605753a378.665249 378.665249 0 0 1 18.219967-68.204381l-57.794287-54.834886c-4.898567-4.649903-5.533017-13.008268-1.514493-19.970844l29.083385-50.374294c4.021593-6.962575 11.574616-10.591219 18.054191-8.674567l76.480882 22.663162a383.758244 383.758244 0 0 1 49.870828-49.872874l-22.662139-76.479858c-1.916653-6.477528 1.714038-14.033621 8.674566-18.054192l50.373271-29.084408c6.962575-4.0175 15.321964-3.381004 19.973914 1.517563l54.831816 57.790194a378.702088 378.702088 0 0 1 68.207451-18.222014l18.605754-77.523631c1.577938-6.567579 8.496511-11.2973 16.536628-11.2973h58.165747c8.039093 0 14.960737 4.729721 16.537652 11.2973l18.605753 77.522608a378.638643 378.638643 0 0 1 68.209498 18.222014l54.831816-57.789171c4.64888-4.898567 13.008268-5.535063 19.970844-1.517563l50.373271 29.084408c6.960529 4.02057 10.592242 11.576663 8.673543 18.054192l-22.659069 76.476788a383.677403 383.677403 0 0 1 49.874921 49.874921l76.476789-22.661116c6.476505-1.916653 14.032598 1.711991 18.051121 8.674567l29.084409 50.374294c4.02057 6.962575 3.38305 15.32094-1.51654 19.970844l-57.789171 54.830793a378.734834 378.734834 0 0 1 18.222014 68.210521l77.522607 18.603707c6.566556 1.577938 11.2973 8.499581 11.297301 16.536628v58.167794c-0.001023 8.039093-4.731768 14.95869-11.298324 16.536628z m-453.549773 204.607005c56.201 0 108.074438-18.530029 149.845796-49.811476l-94.846158-94.846158c-16.451694 8.588609-35.156708 13.450337-54.999638 13.450336-65.735144 0-119.023814-53.28867-119.023814-119.023814 0-19.84293 4.862751-38.548968 13.450336-54.999638l-94.846158-94.846158c-31.281447 41.771359-49.811476 93.644797-49.811476 149.84682 0 138.196479 112.033609 250.230088 250.231112 250.230088z m0-500.462223c-56.205093 0-108.080577 18.532075-149.85296 49.816592l94.846158 94.845135c16.452717-8.590656 35.160801-13.45443 55.007825-13.454429 65.735144 0 119.023814 53.287647 119.023814 119.023813 0 19.846-4.863774 38.553061-13.453407 55.005778l94.846158 94.845135c31.283494-41.772382 49.815569-93.647867 49.81557-149.850913-0.002047-138.197502-112.035656-250.231111-250.233158-250.231111z"  horiz-adv-x="1024" />

    
    <glyph glyph-name="delete" unicode="&#58882;" d="M512 275.456l253.3376-253.3376a76.6976 76.6976 0 1 1 108.544 108.544L620.6464 384l253.2352 253.3376a76.6976 76.6976 0 1 1-108.544 108.544L512 492.6464 258.6624 745.8815999999999a76.6976 76.6976 0 1 1-108.544-108.544L403.3536 384 150.1184 130.66240000000005a76.6976 76.6976 0 1 1 108.544-108.544L512 275.35360000000003z"  horiz-adv-x="1024" />

    
    <glyph glyph-name="quanxian" unicode="&#59852;" d="M530.204617 302.239881c15.193027-2.50403 30.273491 7.513114 32.995485 23.091928 2.785439 15.474436-7.568373 30.277584-23.091927 33.000602-21.86703 3.89675-43.352367 6.070252-63.887053 6.40078-119.41881 1.393743-221.194798-34.338063-292.984844-104.947214-73.28612-72.065316-113.629967-177.017646-113.629967-295.553343 0-15.746636 12.743232-28.489868 28.489868-28.489868 15.751752 0 28.494984 12.743232 28.494984 28.489868 0 103.119589 34.334993 193.657628 96.605222 254.920924 61.544705 60.546981 148.631132 90.317005 252.086365 88.593757 17.470907-0.276293 35.94363-2.168386 54.921867-5.507434z m294.323329-228.377384c-15.530718-2.839675-25.76378-17.638729-22.983457-33.114188 4.449335-24.598234 6.732331-50.302663 6.732331-76.510558 0-15.751752 12.743232-28.494984 28.489868-28.494985 15.746636 0 28.494984 12.743232 28.494985 28.494985 0 29.601178-2.558265 58.758242-7.625678 86.641289-2.835581 15.58393-18.364253 25.432229-33.108049 22.983457zM453.464839 387.324722c123.592876 0 224.150106 100.552114 224.150106 224.14499 0 123.597993-100.552114 224.155223-224.150106 224.155222-123.592876 0-224.149083-100.55723-224.149083-224.155222 0.001023-123.587759 100.556207-224.14499 224.149083-224.14499z m0 391.314337c92.15384 0 167.168324-75.014484 167.168324-167.168324 0-92.148723-75.014484-167.158091-167.168324-167.158091s-167.168324 75.004251-167.168324 167.158091S361.310999 778.639059 453.464839 778.639059z m52.393277-698.997952c-12.812817-12.812817-12.812817-33.576723 0-46.385446 12.812817-12.8077 33.573653-12.8077 46.381354 0 12.811794 12.8077 12.811794 33.576723 0 46.385446-12.808724 12.8077-33.568537 12.8077-46.381354 0z m429.647387 289.739941c-0.271176 0.789992-0.522909 1.530866-0.868787 2.301415-0.059352 0.128937-0.090051 0.267083-0.149402 0.39602-0.261966 0.557702-0.760317 0.884137-1.056052 1.417279-1.269923 2.340301-2.474354 4.726651-4.456499 6.707772-0.305969 0.311085-0.730641 0.409322-1.057075 0.706081-0.528026 0.478907-1.190105 0.725524-1.74883 1.16043-5.491061 4.303003-11.958356 6.529717-18.586311 6.239097-0.064468-0.005117-0.127913-0.035816-0.192382-0.038885-3.541663-0.183172-6.994298-0.978281-10.284227-2.476401-0.187265-0.078795-0.385786-0.053212-0.567935-0.138147-1.14201-0.538259-1.87265-1.506307-2.904143-2.168385-1.664919-1.076518-3.482311-1.822508-4.944615-3.28379l-76.852342-76.906577-34.21936 34.220382 77.128635 77.0744c11.128455 11.128455 11.128455 29.161157 0 40.295751-2.00568 2.000564-4.415566 3.220345-6.786567 4.505617-0.735757 0.433882-1.219781 1.130753-2.00568 1.501191-0.197498 0.093121-0.409322 0.143263-0.602727 0.237407-0.023536 0.00921-0.049119 0.00921-0.073678 0.023536-70.989821 33.484625-155.813718 18.765389-211.342406-36.82265-52.076052-52.076052-66.193585-127.321804-43.694151-192.650695l-49.605792-49.562813c-36.231179 2.844791-72.065316-9.073656-98.191346-35.252898-48.746214-48.742121-48.746214-128.09747 0-176.844708 24.3772-24.375154 56.374962-36.561707 88.424912-36.561707 31.997762 0 63.995523 12.18553 88.370677 36.561707 25.743314 25.738198 37.800931 60.882626 35.440163 96.549964l50.322106 50.362014c19.712971-6.78145 40.172955-10.852162 60.814064-10.852162 47.744397 0 95.492888 18.197454 131.832537 54.53608 54.849212 54.787814 69.76083 138.297786 37.857213 208.763675z m-329.729723-271.148514c-0.280386-0.275269-0.360204-0.650823-0.62217-0.938371a27.611871 27.611871 0 0 1-5.392824-8.110725 58.205657 58.205657 0 0 1-0.326434-0.809436c-1.264806-3.142573-1.88186-6.40692-1.932003-9.908673-0.004093-0.261966-0.004093-0.514723 0-0.77669 0.025583-1.802042-0.344854-3.550873 0.035816-5.382591 4.623297-22.539342-2.337231-45.74895-18.58324-61.994959-26.543539-26.543539-69.783343-26.429952-96.218412 0-26.54047 26.543539-26.54047 69.725014 0 96.268554 16.526395 16.477276 40.067554 23.205515 62.773695 18.36937 1.00284-0.226151 1.926886 0.054235 2.924609-0.054236 1.057075-0.11768 2.065032-0.611937 3.140527-0.611937 0.86981 0 1.694595 0.419556 2.564405 0.499374a26.65201 26.65201 0 0 1 5.739725 1.115403 27.522844 27.522844 0 0 1 4.25286 1.689479c2.02103 1.00284 3.803629 2.212388 5.526877 3.675716 0.647753 0.542352 1.452071 0.7552 2.059915 1.36816l46.844912 46.805002c4.909823-6.395664 9.512654-12.966313 15.365965-18.819624 5.858428-5.853311 12.42703-10.451026 18.819625-15.360849l-46.973848-47.022967z m251.577782 102.671381c-50.52472-50.470485-132.603087-50.578955-183.132924 0-50.470485 50.475602-50.470485 132.667555 0 183.138041 28.347628 28.386514 67.698868 41.085744 106.153692 36.783764l-50.782593-50.752917c-8.738012-8.732895-13.524015-20.311605-13.468756-32.658818 0-12.359492 4.840238-23.876804 13.468756-32.446993l49.695842-49.804312c8.960069-8.846482 20.695345-13.297864 32.496112-13.297864 11.796674 0 23.591301 4.451382 32.614815 13.411451l49.700959 49.734728c3.610224-37.771255-8.901741-76.270081-36.745903-104.10708z m0 0"  horiz-adv-x="1024" />

    
    <glyph glyph-name="xinzeng" unicode="&#58943;" d="M983.836218 582.642604a511.938835 511.938835 0 1 1 40.123596-198.73971 508.631692 508.631692 0 0 1-40.123596 198.73971zM836.270802 333.546744H557.860056v-278.422269a43.292462 43.292462 0 0 0-86.5734 0V333.546744H192.852864a43.292462 43.292462 0 0 0 0 86.5734h278.433792V698.553936a43.292462 43.292462 0 0 0 86.5734 0v-278.387699h278.410746a43.292462 43.292462 0 1 0 0-86.573401z"  horiz-adv-x="1027" />

    
    <glyph glyph-name="xinzeng1" unicode="&#58975;" d="M512 784c-220.9 0-400-179.1-400-400s179.1-400 400-400 400 179.1 400 400-179.1 400-400 400z m183.3-443.1H555.1v-140.2c0-23.7-19.4-43.1-43.1-43.1s-43.1 19.4-43.1 43.1V340.9H328.7c-23.7 0-43.1 19.4-43.1 43.1s19.4 43.1 43.1 43.1h140.2V567.3c0 23.7 19.4 43.1 43.1 43.1s43.1-19.4 43.1-43.1v-140.2h140.2c23.7 0 43.1-19.4 43.1-43.1s-19.4-43.1-43.1-43.1z"  horiz-adv-x="1024" />

    
    <glyph glyph-name="icon1460361798771" unicode="&#58880;" d="M150.312 639.03133334L873.64299999 639.03133334l-361.64199999-567.994-361.639 567.994L150.312 639.03133334z"  horiz-adv-x="1024" />

    
    <glyph glyph-name="shanchu" unicode="&#58883;" d="M512 864C246.4 864 32 649.6 32 384s214.4-480 480-480 480 214.4 480 480S777.6 864 512 864m201.6-681.6c-12.8-12.8-35.2-12.8-48 0l-153.6 153.6-153.6-153.6c-12.8-12.8-35.2-12.8-48 0s-12.8 35.2 0 48l153.6 153.6-153.6 153.6c-12.8 12.8-12.8 35.2 0 48s35.2 12.8 48 0l153.6-153.6 153.6 153.6c12.8 12.8 35.2 12.8 48 0s12.8-35.2 0-48l-153.6-153.6 153.6-153.6c16-12.8 16-35.2 0-48zM713.6 182.4c-12.8-12.8-35.2-12.8-48 0l-153.6 153.6-153.6-153.6c-12.8-12.8-35.2-12.8-48 0s-12.8 35.2 0 48l153.6 153.6-153.6 153.6c-12.8 12.8-12.8 35.2 0 48s35.2 12.8 48 0l153.6-153.6 153.6 153.6c12.8 12.8 35.2 12.8 48 0s12.8-35.2 0-48l-153.6-153.6 153.6-153.6c16-12.8 16-35.2 0-48z"  horiz-adv-x="1024" />

    
    <glyph glyph-name="shanchu1" unicode="&#58927;" d="M512 864c265.6 0 480-214.4 480-480s-214.4-480-480-480S32 118.4 32 384 246.4 864 512 864zM512-128C230.4-128 0 102.4 0 384S230.4 896 512 896s512-230.4 512-512-230.4-512-512-512z m0 960C265.6 832 64 630.4 64 384s201.6-448 448-448 448 201.6 448 448S758.4 832 512 832zM320 416h384c19.2 0 32-12.8 32-32s-12.8-32-32-32H320c-19.2 0-32 12.8-32 32s12.8 32 32 32z"  horiz-adv-x="1024" />

    
    <glyph glyph-name="gengxin" unicode="&#59008;" d="M903.529412 64.752941h-301.176471c-30.117647 0-48.188235 24.094118-48.188235 48.188235s24.094118 48.188235 48.188235 48.188236h301.176471c108.423529 0 198.776471 90.352941 198.77647 198.77647 0 108.423529-84.329412 192.752941-186.729411 198.776471h-30.117647l-12.047059 36.141176c-48.188235 102.4-156.611765 174.682353-271.058824 174.682353S379.482353 697.223529 331.294118 594.823529l-12.047059-30.117647h-30.117647C180.705882 558.682353 102.4 468.329412 102.4 365.929412c0-108.423529 90.352941-198.776471 198.776471-198.776471 30.117647 0 48.188235-24.094118 48.188235-48.188235s-18.070588-54.211765-48.188235-54.211765c-168.658824 0-301.176471 132.517647-301.176471 301.176471 0 150.588235 108.423529 271.058824 252.988235 295.152941C325.270588 787.576471 457.788235 865.882353 602.352941 865.882353s277.082353-78.305882 349.364706-204.8c144.564706-24.094118 252.988235-150.588235 252.988235-295.152941 0-168.658824-132.517647-301.176471-301.17647-301.176471zM650.541176-85.835294c-12.047059 0-24.094118 6.023529-36.141176 12.047059l-150.588235 150.588235c-18.070588 18.070588-18.070588 54.211765 0 72.282353l150.588235 150.588235c18.070588 18.070588 54.211765 18.070588 72.282353 0 18.070588-18.070588 18.070588-54.211765 0-72.282353L572.235294 112.941176l114.447059-114.447058c18.070588-18.070588 18.070588-54.211765 0-72.282353-6.023529-12.047059-24.094118-12.047059-36.141177-12.047059z"  horiz-adv-x="1204" />

    
    <glyph glyph-name="xinzeng2" unicode="&#58938;" d="M927.31917042 454.39091537H582.26316309v345.05600732c0 39.09187018-31.68229853 70.64641643-70.64641637 70.64641641-39.09187018 0-70.64641643-31.68229853-70.64641646-70.64641641v-345.05600732H95.78657073c-39.09187018 0-70.64641643-31.68229853-70.64641981-70.64641639 0-39.09187018 31.68229853-70.64641643 70.64641981-70.64641987h345.05600729v-345.05600732c0-39.09187018 31.68229853-70.64641643 70.64641649-70.64641644 39.09187018 0 70.64641643 31.68229853 70.64641638 70.64641644v345.05600732H927.19142164c39.09187018 0 70.64641643 31.68229853 70.64641639 70.64641987 0.12775226 38.96411792-31.42679745 70.64641643-70.51866761 70.64641639z m0 0"  horiz-adv-x="1024" />

    
    <glyph glyph-name="xinzeng3" unicode="&#58935;" d="M0.599766 384.299883c0-282.289731 228.810621-511.00039 511.100351-511.000391s511.00039 228.810621 511.000391 511.100352S793.789926 895.400234 511.600156 895.400234c-89.664975 0-177.830535-23.590785-255.500195-68.473252C97.961734 735.662632 0.599766 566.928544 0.599766 384.299883zM204.520109 412.588832h614.260055v-56.477938H204.520109zM483.311207 691.37993h56.577899v-614.160094h-56.577899z"  horiz-adv-x="1024" />

    
    <glyph glyph-name="xinzeng4" unicode="&#58945;" d="M870.4 332.8H563.2v-307.2a51.2 51.2 0 0 0-102.4 0V332.8H153.6a51.2 51.2 0 0 0 0 102.4h307.2V742.4a51.2 51.2 0 0 0 102.4 0v-307.2h307.2a51.2 51.2 0 0 0 0-102.4z"  horiz-adv-x="1024" />

    
    <glyph glyph-name="bianji" unicode="&#58884;" d="M670.098286 756.516571l163.108571-164.388571a172541.696 172541.696 0 0 1-442.514286-443.721143l-163.108571 164.388572c147.126857 148.260571 295.350857 296.521143 442.514286 443.721142zM463.213714-43.885714h362.569143c15.981714 0 29.842286-5.376 39.460572-20.406857 17.042286-27.940571-2.157714-61.257143-35.218286-63.414858H101.741714c-17.078857 0-30.939429 5.376-40.521143 20.406858-17.042286 27.940571 2.121143 61.257143 35.181715 63.414857H463.213714zM867.364571 626.505143c-55.442286 55.881143-109.824 110.665143-164.205714 166.509714l4.242286 4.315429L782.043429 872.521143c30.939429 31.158857 72.521143 31.158857 103.460571 0l59.684571-60.16c30.939429-31.158857 30.939429-73.033143 0-104.228572l-73.581714-74.093714c-2.121143-3.254857-3.181714-5.376-4.242286-7.533714zM95.341714 15.177143c33.060571 88.137143 65.060571 176.201143 98.121143 263.241143 53.284571-53.76 107.666286-107.446857 160.987429-162.230857-85.284571-34.377143-171.666286-68.754286-258.048-103.131429 0 1.060571-1.060571 1.060571-1.060572 2.121143z"  horiz-adv-x="1024" />

    
    <glyph glyph-name="shanchu2" unicode="&#58953;" d="M512 864A479.3344 479.3344 0 0 0 992 384 479.3344 479.3344 0 0 0 512-96 479.3344 479.3344 0 0 0 32 384 479.3344 479.3344 0 0 0 512 864zM512-128C230.4-128 0 102.4 0 384S230.4 896 512 896s512-230.4 512-512-230.4-512-512-512z m0 960c-246.4256 0-448-201.6256-448-448 0-246.4256 201.6256-448 448-448 246.4256 0 448 201.6256 448 448 0 246.4256-201.6256 448-448 448zM320 416h384c19.2 0 32-12.8 32-32s-12.8-32-32-32h-384c-19.2 0-32 12.8-32 32s12.8 32 32 32z"  horiz-adv-x="1024" />

    
    <glyph glyph-name="xinzeng5" unicode="&#59001;" d="M512 384m-512 0a512 512 0 1 1 1024 0 512 512 0 1 1-1024 0ZM538.947368 410.947368h188.631579c16.168421 0 26.947368-10.778947 26.947369-26.947368s-10.778947-26.947368-26.947369-26.947368h-188.631579v-188.631579c0-16.168421-10.778947-26.947368-26.947368-26.947369s-26.947368 10.778947-26.947368 26.947369v188.631579h-188.631579c-16.168421 0-26.947368 10.778947-26.947369 26.947368s10.778947 26.947368 26.947369 26.947368h188.631579v188.631579c0 16.168421 10.778947 26.947368 26.947368 26.947369s26.947368-10.778947 26.947368-26.947369v-188.631579z"  horiz-adv-x="1024" />

    
    <glyph glyph-name="bianji1" unicode="&#58895;" d="M128-25.6a25.6 25.6 0 1 0 0 51.2h771.4304a25.6 25.6 0 1 0 0-51.2H128zM755.968 774.5024a25.6 25.6 0 0 1-36.1984 0l-448.3072-448.3072a76.8 76.8 0 0 1-20.992-39.1168l-21.4016-106.0864a25.6 25.6 0 0 1 30.208-30.1568l105.7792 21.7088a76.8 76.8 0 0 1 38.912 20.9408l448.4096 448.4096a25.6 25.6 0 0 1 0 36.1984l-96.4096 96.4096z m36.1984 36.1984l96.4096-96.3584a76.8 76.8 0 0 0 0-108.6464l-448.4608-448.4096a128 128 0 0 0-64.768-34.9184l-105.7792-21.6576a76.8 76.8 0 0 0-90.7264 90.4192l21.4528 106.0864a128 128 0 0 0 34.9696 65.1776l448.3072 448.3072a76.8 76.8 0 0 0 108.5952 0zM608.256 699.2384l168.8064-168.8064-36.1984-36.1984-168.8064 168.7552 36.2496 36.2496z"  horiz-adv-x="1024" />

    
    <glyph glyph-name="bianji2" unicode="&#59024;" d="M582.2976 314.5728L439.1424 456.192l313.856 312.576 143.2064-141.6704-313.856-312.4736z m-220.16-76.4416l57.344 198.4 142.592-141.6704-199.936-56.7296zM962.56 745.984c14.336-14.4384 13.6704-39.424-1.792-55.04l-43.008-42.3936-143.1552 141.6704 43.008 42.3936c16.0768 15.5648 41.1648 16.128 55.4496 1.792L962.56 746.0352z m-102.0928-641.8432l0.6656 355.0208 92.416 89.6v-476.8256c0-81.92-69.7856-148.7872-152.1664-148.7872H199.7824A148.6336 148.6336 0 0 0 51.2 71.9872V667.648c0 82.432 66.2016 158.4128 148.5824 158.3104h476.2624l-88.9856-92.5696H232.6016c-49.4592 0-89.4976-39.9872-89.4976-89.6v-539.648c0-48.9984 40.6016-89.088 89.4976-89.088h538.88c48.896 0 88.9344 40.0896 88.9344 89.088z"  horiz-adv-x="1024" />

    
    <glyph glyph-name="fanhui1" unicode="&#58971;" d="M736-64c-9 0-18.1 3.2-25 9.6L263 360.8c-13.8 12.8-13.8 33.6 0 46.4L711 822.4c13.8 12.8 36.2 12.8 50 0 13.8-12.8 13.8-33.6 0-46.4L338 384l423-392c13.8-12.8 13.8-33.6 0-46.4-6.9-6.4-16-9.6-25-9.6z"  horiz-adv-x="1024" />

    
    <glyph glyph-name="shanchu3" unicode="&#59075;" d="M896 2.112c0-36.48-31.168-66.112-69.504-66.112H325.504c-38.4 0-69.44 29.632-69.504 66.112V704h640v-701.888zM384 815.744C384 824.896 390.592 832 399.104 832h353.856c8.448 0 15.04-7.104 15.04-16.256V768H384v47.744z m725.76-47.616h-266.432v38.528c0 49.152-44.16 89.344-98.112 89.344H407.68c-54.08-0.128-97.92-40.064-98.048-89.344v-38.528H42.24c-23.424 0-42.304-17.28-42.304-38.528 0-21.376 18.88-25.6 42.24-25.6H192v-691.008c0-37.376 0-76.992 21.632-99.712 21.632-22.656 68.416-41.28 109.44-41.28h505.856c41.024 0 87.808 18.56 109.44 41.28C960-64 960-24.32 960 12.992V704h149.76c23.36 0 42.24 5.12 42.24 26.368 0 21.312-18.88 37.76-42.24 37.76z m-500.48-721.92V477.056c0 22.4-14.272 40.512-32 40.512s-32-18.048-32-40.512v-430.976c0-22.4 14.272-40.512 32-40.512s32 18.112 32 40.512z m-192 0V477.056c0 22.4-14.272 40.512-32 40.512s-32-18.048-32-40.512v-430.976c0.64-22.4 14.976-40.512 32-40.512 17.728 0 32 18.112 32 40.512z m384 0V477.056c0 22.4-14.272 40.512-32 40.512-17.664 0-32-18.048-32-40.512v-430.976c0-22.4 14.272-40.512 32-40.512 17.664 0 32 18.112 32 40.512z"  horiz-adv-x="1152" />

    


  </font>
</defs>
</svg>
